# xmcd
# Track frame offsets:
# 150
# 12593
# 44651
# 64904
# 85435
# 107655
# 129173
# 153854
# 179676
# 194287
# 221714
# 235913
# 249415
# 271622
# 294824
# 319586
#
# Disc length: 4643 seconds
# Revision: 0
# Processed by: cddbd v1.5.2PL0 Copyright (c) Steve Scherf et al.
# Submitted via: VisiTrax 2.11.3.279 - For more info visit www.synapsa.com
#
DISCID=e0122110
DTITLE=Various Artist - The Sound Of In 9 CD2
DYEAR=2011
DGENRE=House
TTITLE0=Intro: vendelboe feat. Patrick spiegelberg - Open air (intro mix)
TTITLE1=Fragma - Tocas miracle (inpetto 2008)
TTITLE2=Medina - Velkommen til medina (svenstrup and vendelboe remix)
TTITLE3=Sikk - The whisper (edxs ibiza sunrise mix)
TTITLE4=Cascada - What hurts the most (spencer and hill remix)
TTITLE5=Jean elan - Wheres your head at (klaas remix)
TTITLE6=Dave darell - Children (club mix)
TTITLE7=Eddie thoenick - I wanna freak you (d.o.n.s. Vs. Dnb remix)
TTITLE8=Alexander brown ft. David bateson - 1.class alcoholics (club mix)
TTITLE9=Dj yvan - Adagio for strings 2009 (original mix)
TTITLE10=Svenstrup and vendelboe - Nice nok (original)
TTITLE11=Mischa daniels - Run away (club mix)
TTITLE12=Scotty - The black pearl (dave darell remix)
TTITLE13=Neelix - Disco decay (felguk remix)
TTITLE14=Lentos - Forget about us (barnes and heatcliff remix)
TTITLE15=Way out west - Only love (jerome isma-ae remix)
EXTD=
EXTT0=
EXTT1=
EXTT2=
EXTT3=
EXTT4=
EXTT5=
EXTT6=
EXTT7=
EXTT8=
EXTT9=
EXTT10=
EXTT11=
EXTT12=
EXTT13=
EXTT14=
EXTT15=
PLAYORDER=
